<svg width="18" height="20" viewBox="0 0 18 20" fill="none" xmlns="http://www.w3.org/2000/svg">
<path d="M13.6667 7.4C13.6667 6.23305 13.175 5.11389 12.2998 4.28873C11.4247 3.46357 10.2377 3 9 3C7.76232 3 6.57534 3.46357 5.70017 4.28873C4.825 5.11389 4.33333 6.23305 4.33333 7.4C4.33333 12.5333 2 14 2 14H16C16 14 13.6667 12.5333 13.6667 7.4Z" stroke="#CFCFCF" stroke-width="2" stroke-linecap="round" stroke-linejoin="round"/>
<path d="M10 18C9.89838 18 9.75251 18 9.57701 18C9.40151 18 9.20253 18 9 18C8.79747 18 8.59849 18 8.42299 18C8.24749 18 8.10162 18 8 18" stroke="#CFCFCF" stroke-width="2" stroke-linecap="round" stroke-linejoin="round"/>
<circle cx="13" cy="3" r="3" fill="#D60404"/>
</svg>
