<svg width="15" height="15" viewBox="0 0 15 15" fill="none" xmlns="http://www.w3.org/2000/svg">
<g clip-path="url(#clip0)">
<path d="M10.0454 12.773V11.5912C10.0454 10.9643 9.79634 10.3631 9.35307 9.91983C8.9098 9.47656 8.3086 9.22754 7.68173 9.22754H2.95446C2.32758 9.22754 1.72638 9.47656 1.28311 9.91983C0.839846 10.3631 0.59082 10.9643 0.59082 11.5912V12.773" stroke="#696969" stroke-linecap="round" stroke-linejoin="round"/>
<path d="M5.31823 6.86399C6.62363 6.86399 7.68186 5.80576 7.68186 4.50036C7.68186 3.19495 6.62363 2.13672 5.31823 2.13672C4.01283 2.13672 2.95459 3.19495 2.95459 4.50036C2.95459 5.80576 4.01283 6.86399 5.31823 6.86399Z" stroke="#696969" stroke-linecap="round" stroke-linejoin="round"/>
<path d="M13.5906 12.7733V11.5915C13.5902 11.0678 13.4159 10.5591 13.095 10.1451C12.7742 9.73124 12.3249 9.43561 11.8179 9.30469" stroke="#696969" stroke-linecap="round" stroke-linejoin="round"/>
<path d="M9.45459 2.21387C9.96302 2.34405 10.4137 2.63974 10.7355 3.05432C11.0573 3.46891 11.2319 3.97881 11.2319 4.50364C11.2319 5.02847 11.0573 5.53837 10.7355 5.95296C10.4137 6.36754 9.96302 6.66323 9.45459 6.79341" stroke="#696969" stroke-linecap="round" stroke-linejoin="round"/>
</g>
<defs>
<clipPath id="clip0">
<rect width="14.1818" height="14.1818" fill="white" transform="translate(0 0.364258)"/>
</clipPath>
</defs>
</svg>
